<?xml version="1.0" encoding="utf-8"?>
<!-- Generator: Adobe Illustrator 23.0.3, SVG Export Plug-In . SVG Version: 6.00 Build 0)  -->
<svg version="1.1" id="Layer_1" xmlns="http://www.w3.org/2000/svg" xmlns:xlink="http://www.w3.org/1999/xlink" x="0px" y="0px"
	 viewBox="0 0 100 100" style="enable-background:new 0 0 100 100;" xml:space="preserve">
<style type="text/css">
	.st0{fill:#00001E;}
	.st1{fill:none;}
</style>
<g>
	<path class="st0" d="M65.19,55.87c-7.88,0-14.72,4.54-18.04,11.15c-1.44-6.44-4.25-13.19-8.03-18.97
		c-6.47-9.89-14.52-15.34-22.67-15.34c-0.88,0-1.6,0.72-1.6,1.6c0,0.88,0.72,1.6,1.6,1.6c4.07,0,12.09,1.8,19.99,13.89
		c5.29,8.09,8.57,18.14,8.57,26.23c0,0.88,0.72,1.6,1.6,1.6c0.88,0,1.6-0.72,1.6-1.6c0-9.36,7.61-16.97,16.97-16.97
		c0.88,0,1.6-0.72,1.6-1.6S66.07,55.87,65.19,55.87z"/>
	<path class="st0" d="M77.25,50.8c-3.8,0-6.9,3.09-6.9,6.9s3.09,6.9,6.9,6.9c3.8,0,6.9-3.09,6.9-6.9S81.05,50.8,77.25,50.8z"/>
</g>
</svg>
