<?xml version="1.0" encoding="utf-8"?>
<!-- Generator: Adobe Illustrator 23.0.3, SVG Export Plug-In . SVG Version: 6.00 Build 0)  -->
<svg version="1.1" id="Layer_1" xmlns="http://www.w3.org/2000/svg" xmlns:xlink="http://www.w3.org/1999/xlink" x="0px" y="0px"
	 viewBox="0 0 100 100" style="enable-background:new 0 0 100 100;" xml:space="preserve">
<style type="text/css">
	.st0{fill:#00001E;}
	.st1{fill:none;}
</style>
<g>
	<g>
		<path class="st0" d="M37.9,74.67l6.59-2.45c-2.45-7.7-8.38-13.87-15.94-16.64l-2.47,6.63C31.58,64.5,35.91,69.04,37.9,74.67z"/>
		<path class="st0" d="M32,46.31l-2.33,6.27c8.42,3.1,15.04,9.96,17.82,18.53l6.72-2.5C52.62,57.09,43.51,47.95,32,46.31z"/>
		<path class="st0" d="M24.98,65.21l-4.94,13.28c-0.22,0.59-0.07,1.25,0.37,1.69c0.31,0.31,0.71,0.47,1.13,0.47
			c0.19,0,0.38-0.03,0.56-0.1l12.81-4.76C33.23,71.02,29.6,67.17,24.98,65.21z"/>
	</g>
	<g>
		<path class="st0" d="M44.18,45.82c-0.72,0-1.5-0.06-2.34-0.2c-0.87-0.14-1.46-0.96-1.32-1.84s0.97-1.46,1.84-1.32
			c2.54,0.41,4.51,0.01,5.81-1.17c-1.93-0.89-3.63-2.26-4.43-3.75c-1-1.85-0.9-4.46,2.39-6.27c1.76-0.97,3.63-0.76,4.99,0.55
			c1.67,1.61,2.3,4.59,1.72,7.33c0.32-0.02,0.59-0.1,0.82-0.22c1.81-0.97,3.02-2.47,3.59-4.48c1.13-4.01-0.42-9.34-2.47-12.85
			c-0.45-0.76-0.19-1.74,0.57-2.19c0.76-0.44,1.74-0.19,2.19,0.57c2.22,3.79,4.28,10.09,2.79,15.33c-0.81,2.87-2.55,5.04-5.16,6.43
			c-1.03,0.55-2.31,0.68-3.65,0.52C50.45,43.82,48.27,45.82,44.18,45.82z M48.34,33.87c-0.17,0-0.39,0.06-0.67,0.21
			C46,35,46.35,35.64,46.56,36.03c0.52,0.95,1.79,1.86,3.16,2.46c0.37-1.75-0.02-3.59-0.81-4.35C48.77,34,48.6,33.87,48.34,33.87z"
			/>
	</g>
	<g>
		<path class="st0" d="M56.34,53.43c-0.5,0-1.03-0.05-1.59-0.15c-0.87-0.16-1.44-1-1.28-1.86c0.16-0.87,1-1.44,1.86-1.28
			c3.2,0.59,4.32-1.6,5.78-7.08c0.39-1.47,0.76-2.86,1.28-3.95c1.12-2.33,4.27-3.68,7.3-4.25c0.69-5.35,3.86-11.19,9.9-13.32
			c0.83-0.3,1.75,0.14,2.04,0.97c0.29,0.83-0.14,1.75-0.97,2.04c-4.48,1.59-6.96,5.87-7.68,9.99c0.18,0,0.37,0,0.54,0.01
			c2.91,0.11,4.78,1.03,5.42,2.65c0.58,1.48-0.01,3.12-1.76,4.87c-2.15,2.15-3.91,1.84-4.77,1.47c-1.6-0.7-2.61-2.66-2.82-5.39
			c-2.13,0.5-3.86,1.41-4.32,2.36c-0.39,0.81-0.72,2.06-1.07,3.38C63.18,47.75,61.67,53.43,56.34,53.43z M72.78,37.75
			c0.12,1.88,0.69,2.76,0.91,2.86c0.05,0.02,0.47-0.04,1.23-0.8c1.01-1.01,1.03-1.48,1.03-1.49C75.83,38.18,74.83,37.69,72.78,37.75
			z"/>
	</g>
	<g>
		<path class="st0" d="M62.48,61.77c-0.35,0-0.71-0.02-1.07-0.05c-0.88-0.09-1.52-0.87-1.44-1.75c0.08-0.88,0.87-1.52,1.75-1.44
			c1.5,0.15,2.64-0.12,3.4-0.79c1.17-1.04,1.46-3.06,1.49-4.56c0.02-0.87,0.73-1.56,1.6-1.56c0.01,0,0.02,0,0.04,0
			c0.88,0.02,1.58,0.75,1.56,1.64c-0.07,3.12-0.93,5.43-2.57,6.88C66,61.22,64.41,61.77,62.48,61.77z"/>
	</g>
</g>
</svg>
