<?xml version="1.0" encoding="utf-8"?>
<!-- Generator: Adobe Illustrator 23.0.3, SVG Export Plug-In . SVG Version: 6.00 Build 0)  -->
<svg version="1.1" id="Layer_1" xmlns="http://www.w3.org/2000/svg" xmlns:xlink="http://www.w3.org/1999/xlink" x="0px" y="0px"
	 viewBox="0 0 100 100" style="enable-background:new 0 0 100 100;" xml:space="preserve">
<style type="text/css">
	.st0{fill:#00001E;}
	.st1{fill:none;}
</style>
<path class="st0" d="M50,53.64c-8.17,0-14.82,6.65-14.82,14.82c0,1.77,1.43,3.2,3.2,3.2c1.77,0,3.2-1.43,3.2-3.2
	c0-4.64,3.78-8.42,8.42-8.42c4.64,0,8.42,3.78,8.42,8.42c0,1.77,1.43,3.2,3.2,3.2c1.77,0,3.2-1.43,3.2-3.2
	C64.82,60.29,58.17,53.64,50,53.64z"/>
<g>
	<path class="st1" d="M33.6,46.19c-0.06-0.03-0.11-0.07-0.17-0.1c-0.25-0.15-0.49-0.32-0.73-0.49c-0.01,0-0.01-0.01-0.02-0.01
		c-0.25-0.18-0.49-0.37-0.73-0.57c-1.25-1.04-2.36-2.33-3.2-3.96c-1.48,2.89-3.83,4.77-6.27,5.92c1.72,0.79,3.47,1.96,4.88,3.7
		c0.1,0.12,0.19,0.24,0.28,0.36c0.12,0.17,0.25,0.33,0.37,0.51c0.07,0.11,0.14,0.21,0.21,0.32c0.19,0.3,0.37,0.6,0.53,0.92
		c1.53-2.96,3.93-4.74,6.27-5.81c-0.28-0.13-0.55-0.27-0.83-0.42C34,46.43,33.8,46.31,33.6,46.19z"/>
	<path class="st0" d="M69.78,38.4c0.65-2.82,2.7-7.18,9.2-7.18c0.88,0,1.6-0.72,1.6-1.6c0-0.88-0.72-1.6-1.6-1.6
		c-9.18,0-9.5-8.54-9.5-9.5c0-0.88-0.72-1.6-1.6-1.6s-1.6,0.72-1.6,1.6c0,0.39-0.11,9.5-9.5,9.5c-0.88,0-1.6,0.72-1.6,1.6
		c0,0.88,0.72,1.6,1.6,1.6c4.69,0,7.07,2.23,8.27,4.54c-4.58-2.12-9.67-3.31-15.04-3.31c-6.99,0-13.51,2.01-19.04,5.47
		c-0.38-1.24-0.6-2.6-0.6-4.12c0-0.88-0.72-1.6-1.6-1.6c-0.88,0-1.6,0.72-1.6,1.6c0,4.75-1.88,8.12-5.59,10.01
		c-2.9,1.48-5.89,1.52-5.94,1.52c-0.88,0-1.6,0.72-1.6,1.6c0,0.88,0.72,1.6,1.6,1.6c0.18,0,1.91,0.02,3.97,0.68
		C16.06,54.78,14,61.38,14,68.46c0,1.77,1.43,3.2,3.2,3.2c1.77,0,3.2-1.43,3.2-3.2c0-5.76,1.66-11.14,4.52-15.7
		c0.89,1.13,1.59,2.56,1.96,4.37c-1.68,3.42-2.63,7.26-2.63,11.33c0,1.77,1.43,3.2,3.2,3.2c1.77,0,3.2-1.43,3.2-3.2
		c0-10.67,8.68-19.35,19.35-19.35s19.35,8.68,19.35,19.35c0,1.77,1.43,3.2,3.2,3.2c1.77,0,3.2-1.43,3.2-3.2
		c0-14.2-11.55-25.75-25.75-25.75c-3.79,0-7.38,0.83-10.62,2.3c-1.02-0.22-2.23-0.58-3.43-1.19c-0.43-0.22-0.82-0.46-1.2-0.72
		c4.46-2.69,9.68-4.24,15.25-4.24c16.32,0,29.6,13.28,29.6,29.6c0,1.77,1.43,3.2,3.2,3.2c1.77,0,3.2-1.43,3.2-3.2
		C86,55.91,79.54,44.84,69.78,38.4z M35.03,46.97c-2.34,1.07-4.75,2.86-6.27,5.81c-0.17-0.32-0.35-0.63-0.53-0.92
		c-0.07-0.11-0.14-0.21-0.21-0.32c-0.12-0.17-0.24-0.34-0.37-0.51c-0.09-0.12-0.18-0.25-0.28-0.36c-1.42-1.74-3.17-2.91-4.88-3.7
		c2.45-1.15,4.79-3.03,6.27-5.92c0.84,1.63,1.95,2.93,3.2,3.96c0.24,0.2,0.48,0.39,0.73,0.57c0.01,0,0.01,0.01,0.02,0.01
		c0.24,0.17,0.48,0.34,0.73,0.49c0.06,0.03,0.11,0.07,0.17,0.1c0.2,0.12,0.4,0.25,0.61,0.36C34.48,46.69,34.76,46.84,35.03,46.97z
		 M63.43,29.62c2.07-1.18,3.5-2.88,4.45-4.69c0.95,1.81,2.37,3.51,4.45,4.69c-2.07,1.18-3.5,2.88-4.45,4.69
		C66.93,32.5,65.5,30.8,63.43,29.62z"/>
</g>
</svg>
