<?xml version="1.0" encoding="utf-8"?>
<!-- Generator: Adobe Illustrator 23.0.3, SVG Export Plug-In . SVG Version: 6.00 Build 0)  -->
<svg version="1.1" id="Layer_1" xmlns="http://www.w3.org/2000/svg" xmlns:xlink="http://www.w3.org/1999/xlink" x="0px" y="0px"
	 viewBox="0 0 100 100" style="enable-background:new 0 0 100 100;" xml:space="preserve">
<style type="text/css">
	.st0{fill:#00001E;}
	.st1{fill:none;}
</style>
<g>
	<g>
		<path class="st0" d="M61.62,73.6c-1.77,0-3.2-1.43-3.2-3.2c0-4.64-3.78-8.42-8.42-8.42s-8.42,3.78-8.42,8.42
			c0,1.77-1.43,3.2-3.2,3.2c-1.77,0-3.2-1.43-3.2-3.2c0-8.17,6.65-14.82,14.82-14.82s14.82,6.65,14.82,14.82
			C64.82,72.17,63.38,73.6,61.62,73.6z"/>
	</g>
	<g>
		<path class="st0" d="M72.55,73.6c-1.77,0-3.2-1.43-3.2-3.2c0-10.67-8.68-19.35-19.35-19.35S30.65,59.73,30.65,70.4
			c0,1.77-1.43,3.2-3.2,3.2c-1.77,0-3.2-1.43-3.2-3.2c0-14.2,11.55-25.75,25.75-25.75S75.75,56.2,75.75,70.4
			C75.75,72.17,74.32,73.6,72.55,73.6z"/>
	</g>
	<g>
		<path class="st0" d="M82.8,73.6c-1.77,0-3.2-1.43-3.2-3.2c0-16.32-13.28-29.6-29.6-29.6S20.4,54.08,20.4,70.4
			c0,1.77-1.43,3.2-3.2,3.2S14,72.17,14,70.4c0-19.85,16.15-36,36-36s36,16.15,36,36C86,72.17,84.57,73.6,82.8,73.6z"/>
	</g>
</g>
</svg>
