<?xml version="1.0" encoding="utf-8"?>
<!-- Generator: Adobe Illustrator 23.0.3, SVG Export Plug-In . SVG Version: 6.00 Build 0)  -->
<svg version="1.1" id="Layer_1" xmlns="http://www.w3.org/2000/svg" xmlns:xlink="http://www.w3.org/1999/xlink" x="0px" y="0px"
	 viewBox="0 0 100 100" style="enable-background:new 0 0 100 100;" xml:space="preserve">
<style type="text/css">
	.st0{fill:#00001E;}
	.st1{fill:none;}
</style>
<g>
	<path class="st0" d="M78.57,31.31c-0.61-0.63-1.61-0.65-2.25-0.05c-2.84,2.69-5.52,5.45-7.88,7.88
		C62.78,44.97,57.89,50,54.87,50.02c-0.01,0-0.01,0-0.02,0c-0.62,0-1.14-0.23-1.66-0.75c-0.78-0.78-1.13-1.56-1.12-2.47
		c0.05-2.92,3.89-6.51,6.18-8.65c0.13-0.12,0.25-0.23,0.37-0.35c0.32-0.29,0.63-0.59,0.95-0.91c0,0,0,0,0,0
		c0.62-0.62,0.62-1.64,0-2.26c-0.62-0.62-1.64-0.63-2.26,0c-0.25,0.25-0.54,0.53-0.86,0.82c-4.64,4.27-9.21,5.5-13.63,6.7
		c-4.33,1.17-8.81,2.38-12.82,6.4c-3.42,3.42-5.3,7.94-5.29,12.73c0.01,4.77,1.89,9.27,5.29,12.67c3.38,3.38,7.88,5.23,12.69,5.23
		c0.01,0,0.03,0,0.04,0c4.8-0.01,9.3-1.87,12.67-5.23c4.63-4.63,6.36-9.79,8.2-15.27c2.41-7.17,5.14-15.3,14.96-25.13
		C79.18,32.93,79.18,31.93,78.57,31.31z M48.3,71.04c-4.25,4.25-11.15,4.25-15.4,0c-4.25-4.25-4.25-11.15,0-15.4
		c4.25-4.25,11.15-4.25,15.4,0C52.56,59.89,52.56,66.79,48.3,71.04z"/>
	<g>
		<circle class="st0" cx="39.78" cy="66.86" r="1.9"/>
	</g>
	<g>
		<circle class="st0" cx="39.21" cy="59.92" r="3.64"/>
	</g>
</g>
</svg>
